<svg xmlns="http://www.w3.org/2000/svg" xmlns:xlink="http://www.w3.org/1999/xlink" width="241" height="39" viewBox="0 0 241 39">
    <defs>
        <path id="prefix__a" d="M0.068 0.021L18.02 0.021 18.02 21.846 0.068 21.846z"/>
        <path id="prefix__c" d="M0.004 0.038L5.737 0.038 5.737 1.566 0.004 1.566z"/>
        <path id="prefix__e" d="M0 0L5.732 0 5.732 1.528 0 1.528z"/>
    </defs>
    <g fill="none" fill-rule="evenodd">
        <g>
            <path fill="#FF6900" d="M130.738 11.401c.005-1.488-.327-2.888-1.063-4.187-2.353-4.149-7.99-4.417-10.628-.504-1.798 2.667-1.8 6.722-.006 9.392 2.245 3.339 6.808 3.764 9.603.874 1.497-1.548 2.079-3.46 2.094-5.575m4.05.03c-.059 3.425-1.199 6.387-3.806 8.69-1.625 1.436-3.537 2.222-5.703 2.438-6.099.61-10.778-3.773-11.498-9.407-.418-3.271.214-6.298 2.237-8.94C117.85 1.817 120.305.5 123.328.25c5.8-.482 10.206 3.55 11.214 8.686.161.823.255 1.652.245 2.495" transform="translate(.5 .2) translate(44.047 7.89)"/>
            <g transform="translate(.5 .2) translate(44.047 7.89) translate(177.781 .48)">
                <mask id="prefix__b" fill="#fff">
                    <use xlink:href="#prefix__a"/>
                </mask>
                <path fill="#FF6900" d="M.069 2.217C.042.702 1.066.005 2.266.02c2.809.038 5.618.045 8.426.004 3.367-.05 5.946 2.582 6.354 5.607.35 2.6-.624 4.636-2.62 6.248-.155.125-.377.203-.072.429 1.325.982 1.857 2.363 1.965 3.957.032.47.108.938.167 1.406.057.45.262.803.637 1.079.503.369.9.815.897 1.5-.005.844-.59 1.488-1.432 1.575-1.22.127-2.153-.376-2.873-1.32-.678-.888-.935-1.931-1.045-3.018-.043-.43-.054-.862-.071-1.293-.047-1.192-.776-2.027-1.957-2.228-.333-.056-.667-.086-1.007-.084-1.148.007-2.676-.005-3.824.008-.26.003-.348-.065-.342-.335.017-.85.018-1.702-.001-2.552-.007-.281.095-.338.348-.336 1.418.01 3.217-.019 4.634.014.703.016 1.212-.255 1.64-.782 1.072-1.322 1.3-3.525.494-4.96-.494-.881-1.199-1.362-2.262-1.342-1.971.038-3.943.021-5.915.002-.369-.004-.442.11-.441.456.01 5.172.008 10.344.006 15.516 0 .202-.002.406-.03.606-.183 1.389-1.262 2.007-2.562 1.472-.906-.372-1.296-.95-1.296-1.933v-8.83c0-2.89.036-5.781-.015-8.67z" mask="url(#prefix__b)"/>
            </g>
            <path fill="#FF6900" d="M102.23 22.62c-2.006-.058-3.987-.375-5.752-1.514-.568-.367-1.125-.753-1.57-1.267-.98-1.132-.518-2.757.872-3.087.562-.133 1.066.01 1.515.37.848.678 1.741 1.294 2.8 1.583 1.65.45 3.3.523 4.906-.203.22-.099.429-.228.632-.358 1.661-1.064 1.234-3.042.041-3.872-.897-.624-1.923-.897-2.968-1.122-1.066-.229-2.158-.33-3.206-.653-1.39-.428-2.652-1.059-3.6-2.21-1.687-2.05-1.934-6.467 1.487-8.692C98.542.845 99.818.43 101.174.284c2.236-.241 4.384.09 6.405 1.111.677.342 1.319.746 1.842 1.302.523.555.707 1.225.415 1.944-.278.684-.797 1.108-1.568 1.159-.368.023-.68-.105-.98-.311-1.68-1.156-3.512-1.825-5.583-1.66-.97.076-1.896.306-2.626 1.01-1.04 1.004-.907 2.709.289 3.522.969.66 2.093.915 3.219 1.135 1.549.303 3.099.596 4.556 1.234 2.182.954 3.215 2.635 3.32 5.008.142 3.258-2.033 5.337-4.426 6.237-1.215.458-2.47.657-3.807.646M164.764 6.557c-.517 1.224-1.004 2.378-1.493 3.531-1.57 3.698-3.14 7.398-4.715 11.094-.418.981-1.162 1.421-2.057 1.246-.941-.183-1.449-1.002-1.205-1.984.156-.63.462-1.207.71-1.804 2.338-5.628 4.683-11.253 7.028-16.878.567-1.362 1.87-1.8 2.987-1.017.346.243.55.586.709.964 1.549 3.693 3.096 7.386 4.646 11.079.965 2.3 1.932 4.6 2.9 6.898.38.904.265 1.713-.33 2.28-.868.83-2.172.605-2.749-.518-.405-.79-.727-1.624-1.083-2.44-.179-.407-.368-.811-.518-1.23-.098-.273-.247-.359-.536-.357-2.12.013-4.62.007-6.74.007-.447 0-.45-.003-.277-.401.407-.94.832-1.873 1.216-2.823.125-.309.292-.387.604-.383 1.094.019 2.568.005 3.662.01.233 0 .37-.023.243-.315-.992-2.288-1.976-4.58-3.002-6.96M138.757 11.392c0-2.97.018-5.941-.007-8.912-.013-1.463 1.374-2.222 2.529-1.881.8.236 1.32.94 1.366 1.854.006.135.002.27.002.406 0 5.103.005 10.207-.012 15.31-.001.425.121.503.516.5 2.511-.018 5.023-.012 7.534-.007.904.002 1.602.453 1.858 1.172.418 1.178-.339 2.353-1.588 2.46-.134.01-.27.01-.405.01-3.226 0-6.453-.026-9.68.014-1.192.014-2.149-.773-2.128-2.137.047-2.929.015-5.86.015-8.79" transform="translate(.5 .2) translate(44.047 7.89)"/>
            <path fill="#FFF" d="M67.767 18.913V1.789c0-.162-.004-.324.008-.486.034-.455.41-.792.867-.787.452.004.799.316.843.766.011.12.007.243.007.364v19.611c-.01.548-.211.854-.655.999-.42.137-.87-.022-1.17-.426-1.232-1.657-2.463-3.317-3.694-4.975L54.656 4.303c-.047-.064-.101-.122-.23-.275v.51c0 5.565 0 11.13.003 16.694 0 .32-.015.618-.29.843-.274.227-.57.297-.903.162-.332-.134-.51-.385-.53-.744-.005-.08-.004-.162-.004-.243 0-6.537.002-13.074-.004-19.61 0-.434.066-.813.49-1.027.443-.222.91-.082 1.267.396.881 1.178 1.753 2.364 2.63 3.545l10.447 14.083c.053.072.116.137.235.276M7.8 22.615c-2.903.054-5.292-1.098-7.307-3.118-.45-.45-.444-1.004-.004-1.429.41-.395.924-.388 1.357.076 1.236 1.327 2.715 2.21 4.516 2.501 1.605.26 3.17.171 4.659-.57 2.658-1.324 2.688-4.669.382-6.219-1.124-.756-2.387-1.184-3.653-1.607-1.317-.44-2.651-.834-3.864-1.535C1.856 9.541.867 7.8 1.052 5.444 1.22 3.308 2.4 1.823 4.302 1.016c3.186-1.35 6.29-1.115 9.19.863.46.313.838.726 1.128 1.206.274.455.182.88-.246 1.209-.39.3-.858.277-1.198-.095C11.236 2.082 7.93 1.524 5.37 2.53c-1.963.773-2.829 2.52-2.225 4.464.227.73.704 1.266 1.331 1.679 1.275.841 2.699 1.342 4.144 1.793 1.25.39 2.5.783 3.636 1.452 2.14 1.261 2.961 3.107 2.744 5.443-.248 2.661-2.01 4.058-4.37 4.855-.914.309-1.87.406-2.83.398M44.198 11.421V1.7c0-.646.194-.97.66-1.123.626-.205 1.224.164 1.313.817.02.146.012.296.012.445l.001 19.12c0 .216.003.432-.065.64-.153.47-.567.745-1.057.701-.481-.043-.794-.358-.854-.873-.017-.147-.01-.297-.01-.445v-9.56M88.902 20.461c-.12-.01-.243-.005-.364-.005-3.201 0-6.402-.004-9.602.008-.338.001-.458-.06-.457-.435.006-2.672 0-5.345 0-8.018 1.293-.01 3.862-.003 4.867-.003 1.107 0 2.214.005 3.32-.002.6-.005.984-.366.984-.897 0-.542-.375-.942-.948-.945-2.114-.01-5.9-.003-8.223-.008 0-2.462.006-4.924 0-7.387 0-.35.109-.415.433-.413 3.215.011 6.43.007 9.643.006.149 0 .3.01.446-.01.598-.074.941-.605.767-1.177-.138-.454-.47-.661-1.076-.661h-10.98c-.888 0-1.178.294-1.178 1.197V21.24c.001.69.318 1.06.941 1.06 3.795.006 7.59.006 11.386.001.57 0 .953-.371.958-.885.005-.495-.39-.909-.917-.955M22.599 1.643c-.001-.61-.292-1.007-.797-1.11-.696-.142-1.185.35-1.185 1.203v19.327c0 .16.01.324.04.483.082.453.412.734.867.755.644.03 1.074-.438 1.075-1.188V1.643zM37.184 1.394c-.057-.533-.417-.867-.937-.878-.509-.01-.94.355-1.004.864-.023.187-.03.377-.03.565-.001 2.634-.004 5.267.004 7.901 0 .276-.039.41-.368.41-3.352-.01-7.086-.008-10.438-.003-.144 0-.26.117-.26.26v1.241c0 .175.142.317.317.318 3.297.009 6.976.01 10.273-.005.412-.001.481.134.48.506-.016 2.782-.01 5.565-.008 8.347 0 .169.003.34.024.507.067.528.552.93 1.081.87.537-.06.873-.503.873-1.171v-9.724-9.603c0-.135.007-.271-.007-.405" transform="translate(.5 .2) translate(44.047 7.89)"/>
        </g>
        <path fill="#FFF" d="M19.123 38.246c-.422 0-.765-.342-.765-.764v-4.198c0-.422.343-.765.765-.765s.765.343.765.765v4.198c0 .422-.343.764-.765.764M24.073 37.59c-.408.11-.828-.132-.937-.54l-1.088-4.055c-.11-.407.133-.826.541-.936.408-.109.828.133.937.54l1.088 4.056c.109.408-.133.827-.541.936M28.665 35.681c-.366.211-.833.086-1.045-.28l-2.1-3.635c-.212-.366-.087-.833.28-1.044.365-.211.833-.086 1.044.28l2.101 3.635c.211.366.086.833-.28 1.044M32.632 32.638c-.299.298-.783.298-1.082 0l-2.971-2.969c-.299-.298-.299-.782 0-1.08.298-.3.783-.3 1.082 0l2.971 2.968c.299.298.299.782 0 1.08M35.686 28.695c-.21.366-.679.491-1.045.28l-3.64-2.1c-.365-.21-.49-.677-.279-1.043.211-.365.679-.49 1.045-.28l3.64 2.1c.365.21.49.678.28 1.043M37.583 24.092c-.11.408-.529.65-.937.54l-4.06-1.086c-.407-.11-.65-.528-.54-.936.11-.407.529-.65.937-.54l4.06 1.086c.407.11.65.529.54.936" transform="translate(.5 .2)"/>
        <g transform="translate(.5 .2) translate(32.51 18.34)">
            <mask id="prefix__d" fill="#fff">
                <use xlink:href="#prefix__c"/>
            </mask>
            <path fill="#FFF" d="M5.737.802c0 .422-.343.764-.765.764H.769c-.422 0-.765-.342-.765-.764S.347.038.77.038h4.203c.422 0 .765.342.765.764" mask="url(#prefix__d)"/>
        </g>
        <g transform="translate(.5 .2) translate(0 18.378)">
            <mask id="prefix__f" fill="#fff">
                <use xlink:href="#prefix__e"/>
            </mask>
            <path fill="#FFF" d="M0 .764C0 .342.342 0 .765 0h4.202c.423 0 .765.342.765.764s-.342.764-.765.764H.765C.342 1.528 0 1.186 0 .764" mask="url(#prefix__f)"/>
        </g>
        <path fill="#FFF" d="M.656 24.087c-.11-.408.133-.827.54-.936l4.06-1.087c.408-.109.827.133.937.54.11.408-.133.827-.541.937l-4.06 1.086c-.407.11-.827-.132-.936-.54M2.567 28.675c-.21-.366-.085-.833.28-1.044l3.64-2.1c.366-.21.834-.085 1.045.28.211.366.086.833-.28 1.044l-3.64 2.1c-.366.21-.833.085-1.045-.28M19.123.038c.422 0 .765.342.765.764v4.199c0 .422-.343.764-.765.764-.423 0-.765-.342-.765-.764V.802c0-.422.342-.764.765-.764M5.614 5.647c.299-.299.783-.299 1.082 0l2.971 2.968c.299.299.299.782 0 1.08-.299.3-.783.3-1.082 0L5.614 6.728c-.299-.298-.299-.782 0-1.08M2.56 9.589c.21-.366.679-.49 1.045-.28l3.639 2.1c.366.21.491.678.28 1.043-.211.366-.68.49-1.045.28l-3.64-2.1c-.365-.21-.49-.678-.28-1.043M.663 14.192c.11-.408.529-.65.937-.54l4.059 1.086c.408.11.65.528.54.936-.108.408-.528.65-.936.54l-4.06-1.086c-.407-.11-.65-.529-.54-.936M37.59 14.197c.11.408-.133.827-.54.936l-4.06 1.087c-.408.109-.828-.133-.937-.54-.11-.408.133-.827.541-.936l4.06-1.087c.407-.11.827.133.936.54M35.678 9.61c.212.365.086.832-.28 1.043l-3.639 2.1c-.366.21-.834.085-1.045-.28-.211-.366-.086-.833.28-1.044l3.64-2.1c.365-.21.833-.085 1.044.28M32.632 5.646c.299.299.299.783 0 1.081L29.66 9.696c-.298.298-.783.298-1.081 0-.3-.299-.3-.783 0-1.081l2.971-2.969c.299-.298.783-.298 1.082 0M28.686 2.595c.366.211.49.679.28 1.044l-2.102 3.636c-.21.365-.679.49-1.044.28-.366-.211-.492-.679-.28-1.044l2.1-3.636c.212-.366.68-.49 1.046-.28M24.078.7c.408.11.65.529.541.936l-1.088 4.056c-.109.407-.528.65-.937.54-.408-.11-.65-.528-.54-.936L23.14 1.24c.11-.408.529-.65.937-.54" transform="translate(.5 .2)"/>
        <path fill="#FF6900" d="M19.123 30.232c-.422 0-.765-.342-.765-.764v-2.292c0-.422.343-.764.765-.764s.765.342.765.764v2.292c0 .422-.343.764-.765.764M26.39 19.127c0-.422.343-.765.766-.765h2.294c.423 0 .765.343.765.765s-.342.764-.765.764h-2.294c-.423 0-.765-.342-.765-.764M25.412 22.77c.21-.366.679-.492 1.044-.28l1.988 1.146c.366.21.49.678.28 1.044-.212.365-.68.49-1.045.28l-1.988-1.147c-.365-.211-.49-.678-.28-1.044M22.747 25.441c.366-.21.834-.086 1.045.28l1.148 1.985c.21.366.085.833-.28 1.044-.366.211-.834.086-1.045-.28l-1.148-1.985c-.21-.365-.086-.833.28-1.044" transform="translate(.5 .2)"/>
        <path fill="#FFF" d="M14.173.693c.408-.109.828.133.937.54l1.088 4.056c.11.408-.133.827-.541.936-.408.109-.828-.133-.937-.54l-1.088-4.056c-.109-.407.133-.826.541-.936M9.58 2.603c.367-.21.834-.086 1.046.28l2.1 3.636c.212.365.087.832-.28 1.043-.365.211-.833.086-1.044-.28L9.3 3.648c-.212-.366-.086-.833.28-1.044M5.614 32.638c-.299-.299-.299-.783 0-1.08l2.971-2.97c.3-.298.784-.298 1.082 0 .299.299.299.783 0 1.081l-2.971 2.969c-.299.298-.783.298-1.082 0" transform="translate(.5 .2)"/>
        <path fill="#FF6900" d="M19.116 8.059c.423 0 .765.342.765.764v2.293c0 .422-.342.764-.765.764-.422 0-.765-.342-.765-.764V8.823c0-.422.343-.764.765-.764M12.828 15.522c-.211.366-.68.491-1.045.28l-1.987-1.146c-.366-.211-.492-.679-.28-1.044.21-.365.679-.49 1.044-.28l1.988 1.147c.366.21.491.678.28 1.043M15.492 12.85c-.366.211-.834.086-1.045-.28L13.3 10.586c-.211-.365-.086-.833.28-1.044.366-.21.833-.085 1.045.28l1.147 1.985c.211.366.086.833-.28 1.044M22.737 12.858c-.366-.211-.491-.678-.28-1.044l1.147-1.985c.211-.366.68-.49 1.045-.28.366.211.491.678.28 1.044l-1.147 1.985c-.212.366-.68.491-1.045.28M25.412 15.52c-.212-.366-.086-.833.28-1.044l1.987-1.147c.366-.21.833-.085 1.045.28.21.366.086.833-.28 1.044l-1.988 1.146c-.365.211-.833.086-1.044-.28" transform="translate(.5 .2)"/>
        <path fill="#FFF" d="M9.56 35.689c-.366-.211-.491-.678-.28-1.044l2.101-3.636c.212-.365.68-.49 1.045-.28.366.212.492.679.28 1.044l-2.1 3.636c-.212.366-.68.49-1.046.28" transform="translate(.5 .2)"/>
        <path fill="#FF6900" d="M8.032 19.151c0-.422.342-.764.765-.764h2.294c.423 0 .765.342.765.764s-.342.764-.765.764H8.797c-.423 0-.765-.342-.765-.764M15.502 25.434c.366.21.492.678.28 1.043l-1.147 1.986c-.211.365-.679.49-1.045.28-.366-.212-.491-.679-.28-1.044l1.148-1.986c.21-.365.679-.49 1.044-.28M12.828 22.772c.211.365.086.833-.28 1.044l-1.988 1.146c-.365.211-.833.086-1.044-.28-.212-.365-.086-.833.28-1.044l1.987-1.146c.366-.21.834-.086 1.045.28" transform="translate(.5 .2)"/>
        <path fill="#FFF" d="M14.168 37.584c-.408-.11-.65-.528-.541-.936l1.088-4.055c.109-.408.528-.65.936-.54.408.109.65.528.541.935l-1.087 4.055c-.11.408-.53.65-.937.54" transform="translate(.5 .2)"/>
    </g>
</svg>
