<svg xmlns="http://www.w3.org/2000/svg" xmlns:xlink="http://www.w3.org/1999/xlink" width="290" height="47" viewBox="0 0 290 47">
    <defs>
        <path id="prefix__a" d="M0.082 0.026L21.759 0.026 21.759 26.378 0.082 26.378z"/>
        <path id="prefix__c" d="M0.005 0.046L6.927 0.046 6.927 1.891 0.005 1.891z"/>
        <path id="prefix__e" d="M0 0L6.922 0 6.922 1.846 0 1.846z"/>
    </defs>
    <g fill="none" fill-rule="evenodd">
        <g>
            <path fill="#FF6900" d="M157.862 13.766c.006-1.796-.394-3.487-1.284-5.055-2.84-5.01-9.647-5.333-12.832-.609-2.17 3.22-2.174 8.116-.007 11.34 2.71 4.032 8.22 4.545 11.594 1.056 1.808-1.87 2.51-4.178 2.529-6.732m4.89.036c-.07 4.136-1.447 7.713-4.595 10.494-1.962 1.733-4.271 2.683-6.886 2.944-7.365.735-13.014-4.556-13.884-11.36-.505-3.95.259-7.604 2.7-10.795 2.214-2.892 5.178-4.48 8.829-4.784 7.003-.581 12.323 4.286 13.539 10.49.195.993.308 1.994.296 3.011" transform="translate(53.186 9.528)"/>
            <g transform="translate(53.186 9.528) translate(214.665 .58)">
                <mask id="prefix__b" fill="#fff">
                    <use xlink:href="#prefix__a"/>
                </mask>
                <path fill="#FF6900" d="M.083 2.677C.05.848 1.287.007 2.736.026 6.127.072 9.52.08 12.911.03c4.064-.06 7.179 3.118 7.671 6.77.423 3.14-.753 5.599-3.163 7.544-.187.151-.455.246-.087.518 1.6 1.187 2.242 2.854 2.373 4.78.039.566.13 1.131.201 1.696.07.544.317.97.77 1.303.606.446 1.087.984 1.083 1.813-.006 1.017-.714 1.795-1.73 1.9-1.474.154-2.599-.454-3.469-1.593-.818-1.073-1.129-2.333-1.26-3.645-.053-.518-.067-1.04-.088-1.562-.056-1.439-.936-2.446-2.362-2.689-.402-.068-.806-.104-1.216-.101-1.386.007-3.231-.006-4.617.009-.314.003-.42-.078-.414-.405.021-1.027.023-2.055 0-3.081-.008-.34.114-.408.42-.406 1.712.011 3.884-.022 5.595.017.849.02 1.464-.308 1.98-.944 1.294-1.597 1.57-4.256.596-5.99-.596-1.063-1.447-1.644-2.73-1.62-2.38.046-4.762.026-7.143.003-.445-.005-.533.132-.532.55.012 6.246.01 12.49.007 18.736 0 .244-.003.49-.035.731-.222 1.677-1.525 2.424-3.094 1.778C.572 25.692.102 24.995.1 23.808V13.145c0-3.49.044-6.98-.018-10.468z" mask="url(#prefix__b)"/>
            </g>
            <path fill="#FF6900" d="M123.44 27.314c-2.423-.071-4.814-.454-6.946-1.829-.686-.443-1.359-.91-1.897-1.53-1.182-1.367-.624-3.33 1.054-3.727.679-.16 1.287.011 1.83.446 1.023.819 2.102 1.563 3.38 1.912 1.992.544 3.984.632 5.924-.245.266-.12.518-.275.764-.433 2.005-1.284 1.489-3.673.049-4.675-1.083-.753-2.322-1.084-3.583-1.355-1.288-.276-2.606-.399-3.871-.788-1.68-.517-3.203-1.279-4.347-2.669-2.038-2.475-2.336-7.809 1.794-10.495 1.396-.907 2.936-1.407 4.574-1.583 2.7-.291 5.293.108 7.733 1.341.817.414 1.593.902 2.225 1.573.631.67.853 1.479.5 2.346-.335.827-.962 1.34-1.893 1.4-.444.028-.82-.126-1.183-.375-2.03-1.396-4.24-2.203-6.742-2.005-1.172.092-2.288.37-3.17 1.22-1.256 1.212-1.095 3.27.348 4.252 1.17.796 2.528 1.106 3.888 1.372 1.87.365 3.741.719 5.5 1.489 2.635 1.153 3.883 3.181 4.009 6.047.173 3.934-2.454 6.445-5.343 7.532-1.467.552-2.984.792-4.598.779M198.948 7.917c-.625 1.479-1.213 2.872-1.804 4.264-1.896 4.466-3.79 8.933-5.693 13.396-.505 1.184-1.403 1.716-2.484 1.505-1.136-.222-1.749-1.21-1.454-2.396.188-.76.558-1.458.857-2.178 2.823-6.796 5.654-13.588 8.486-20.38.685-1.645 2.258-2.174 3.607-1.229.418.294.664.708.856 1.164 1.87 4.46 3.739 8.92 5.61 13.378 1.165 2.778 2.332 5.554 3.5 8.33.46 1.09.322 2.068-.397 2.753-1.048 1-2.623.73-3.319-.627-.49-.954-.878-1.96-1.308-2.945-.216-.492-.444-.98-.626-1.485-.118-.33-.297-.434-.646-.431-2.56.015-5.58.008-8.14.007-.539 0-.542-.003-.334-.484.492-1.135 1.005-2.261 1.469-3.408.15-.373.353-.468.73-.462 1.32.022 3.1.006 4.421.01.28.002.447-.026.294-.379-1.199-2.763-2.387-5.53-3.625-8.403M167.545 13.755c0-3.587.021-7.174-.009-10.76-.015-1.767 1.66-2.683 3.054-2.272.967.285 1.595 1.135 1.649 2.24.008.162.002.325.002.489 0 6.162.007 12.325-.013 18.487-.002.512.146.607.623.603 3.032-.022 6.064-.015 9.097-.008 1.091.002 1.934.547 2.242 1.415.506 1.422-.408 2.841-1.916 2.97-.162.014-.326.012-.489.012-3.896 0-7.793-.03-11.689.017-1.44.017-2.594-.933-2.569-2.58.056-3.537.017-7.075.018-10.613" transform="translate(53.186 9.528)"/>
            <path fill="#425563" d="M81.827 22.836V2.16c0-.195-.006-.391.009-.587.041-.548.494-.956 1.047-.95.546.005.965.382 1.018.925.014.146.009.293.009.44v23.68c-.014.661-.256 1.03-.792 1.205-.507.166-1.05-.026-1.412-.514-1.488-2.001-2.974-4.005-4.46-6.007L65.995 5.195c-.058-.077-.123-.147-.277-.331v.616c0 6.719-.001 13.438.003 20.157 0 .386-.019.746-.35 1.018-.332.273-.69.358-1.091.195-.401-.162-.616-.464-.641-.898-.005-.098-.004-.195-.004-.293 0-7.893.003-15.787-.004-23.68 0-.522.079-.98.592-1.238.534-.27 1.097-.1 1.528.478 1.065 1.422 2.117 2.854 3.176 4.28l12.615 17.005c.064.087.14.165.284.332M9.42 27.307c-3.507.065-6.391-1.326-8.825-3.765-.543-.544-.536-1.213-.004-1.725.495-.478 1.115-.469 1.638.091 1.493 1.602 3.278 2.668 5.453 3.02 1.938.314 3.827.207 5.625-.689 3.21-1.598 3.246-5.636.462-7.508-1.357-.913-2.883-1.43-4.411-1.94-1.59-.532-3.201-1.008-4.666-1.854-2.452-1.416-3.645-3.52-3.422-6.363.203-2.58 1.627-4.374 3.925-5.348C9.041-.405 12.789-.12 16.292 2.268c.554.377 1.011.877 1.361 1.456.331.55.22 1.062-.297 1.46-.47.362-1.036.334-1.447-.115-2.341-2.555-6.333-3.23-9.424-2.013-2.37.933-3.415 3.043-2.686 5.39.273.882.85 1.528 1.607 2.027 1.54 1.017 3.259 1.622 5.004 2.165 1.509.471 3.02.947 4.39 1.754 2.584 1.523 3.576 3.752 3.313 6.572-.3 3.213-2.426 4.9-5.277 5.863-1.104.372-2.256.489-3.417.48M53.367 13.79V2.052c.001-.78.235-1.17.798-1.356.755-.248 1.478.199 1.584.987.024.176.016.358.016.537l.001 23.087c0 .26.004.521-.079.774-.185.566-.684.898-1.276.845-.581-.051-.959-.432-1.03-1.054-.021-.177-.013-.358-.013-.537V13.79M107.347 24.706c-.146-.012-.294-.005-.44-.005-3.865 0-7.73-.006-11.595.008-.408.002-.552-.07-.551-.524.007-3.227 0-6.455 0-9.682 1.562-.013 4.664-.004 5.877-.004 1.337 0 2.673.006 4.01-.003.722-.005 1.186-.441 1.186-1.083 0-.653-.452-1.137-1.144-1.14-2.553-.013-7.125-.004-9.928-.01-.001-2.973.006-5.946 0-8.919 0-.424.13-.502.522-.5 3.882.014 7.763.009 11.644.009.18 0 .36.01.537-.012.723-.09 1.137-.732.927-1.422-.167-.549-.566-.799-1.3-.799H93.836c-1.072 0-1.422.356-1.422 1.446V13.76c0 3.962-.002 7.925 0 11.888.001.833.383 1.279 1.136 1.28 4.583.007 9.165.007 13.747 0 .69 0 1.151-.447 1.158-1.068.005-.598-.47-1.097-1.107-1.153M27.288 1.984c-.002-.737-.354-1.216-.963-1.34-.84-.172-1.43.422-1.43 1.452-.002 7.779-.002 15.558 0 23.337 0 .194.012.392.047.583.1.547.498.886 1.048.912.778.036 1.297-.53 1.298-1.434V1.984zM44.898 1.684c-.068-.645-.503-1.048-1.13-1.061-.615-.012-1.135.429-1.213 1.043-.029.226-.036.455-.036.683-.002 3.18-.005 6.36.004 9.54.001.333-.046.495-.444.494-4.048-.011-8.556-.008-12.604-.002-.173 0-.313.14-.313.314v1.498c0 .211.17.383.382.384 3.982.01 8.423.011 12.405-.006.497-.002.58.161.578.61-.018 3.36-.01 6.72-.008 10.079 0 .204.004.41.03.613.08.637.665 1.121 1.304 1.05.649-.072 1.054-.608 1.054-1.414.002-3.914.001-7.828.001-11.742V2.172c0-.163.008-.327-.01-.488" transform="translate(53.186 9.528)"/>
        </g>
        <path fill="#425563" d="M23.09 46.18c-.51 0-.923-.412-.923-.922v-5.07c0-.509.413-.922.923-.922s.924.413.924.923v5.07c0 .509-.413.922-.924.922M29.067 45.39c-.493.132-1-.16-1.131-.653l-1.314-4.896c-.132-.492.16-.998.654-1.13.492-.132.999.16 1.13.652l1.314 4.897c.132.492-.16.998-.653 1.13M34.612 43.084c-.441.255-1.006.103-1.261-.338l-2.537-4.39c-.256-.441-.104-1.006.338-1.26.441-.255 1.006-.104 1.261.337l2.537 4.39c.255.442.104 1.006-.338 1.26M39.402 39.409c-.36.36-.945.36-1.306 0l-3.588-3.585c-.36-.36-.36-.944 0-1.304.36-.36.945-.36 1.306 0l3.588 3.584c.36.36.36.945 0 1.305M43.09 34.649c-.255.441-.82.592-1.262.337l-4.394-2.534c-.442-.255-.593-.82-.338-1.26.255-.442.82-.593 1.261-.338l4.395 2.534c.442.255.593.82.338 1.26M45.38 29.09c-.132.493-.638.785-1.13.653l-4.902-1.312c-.493-.132-.785-.638-.653-1.13.132-.492.638-.784 1.13-.652l4.902 1.312c.493.132.785.638.653 1.13"/>
        <g transform="translate(39.254 22.145)">
            <mask id="prefix__d" fill="#fff">
                <use xlink:href="#prefix__c"/>
            </mask>
            <path fill="#425563" d="M6.927.969c0 .51-.414.922-.924.922H.93c-.51 0-.924-.413-.924-.922C.005.459.42.046.93.046h5.074c.51 0 .924.413.924.923" mask="url(#prefix__d)"/>
        </g>
        <g transform="translate(0 22.19)">
            <mask id="prefix__f" fill="#fff">
                <use xlink:href="#prefix__e"/>
            </mask>
            <path fill="#425563" d="M0 .923C0 .413.414 0 .924 0h5.074c.51 0 .924.413.924.923s-.414.923-.924.923H.924C.414 1.846 0 1.432 0 .923" mask="url(#prefix__f)"/>
        </g>
        <path fill="#425563" d="M.792 29.084c-.132-.492.16-.998.653-1.13l4.901-1.312c.493-.132 1 .16 1.132.653.132.492-.16.998-.653 1.13l-4.902 1.312c-.493.132-1-.16-1.131-.653M3.1 34.624c-.255-.441-.104-1.006.338-1.26l4.395-2.535c.441-.255 1.006-.104 1.261.338.255.441.104 1.005-.338 1.26l-4.394 2.535c-.442.255-1.007.103-1.262-.338M23.09.046c.51 0 .924.413.924.923v5.069c0 .51-.414.923-.924.923s-.923-.413-.923-.923V.968c0-.509.413-.922.923-.922M6.779 6.818c.36-.36.945-.36 1.306 0l3.588 3.584c.36.36.36.945 0 1.305s-.946.36-1.306 0L6.779 8.123c-.361-.36-.361-.945 0-1.305M3.09 11.578c.256-.441.82-.592 1.262-.338l4.395 2.535c.442.255.593.82.338 1.26-.255.442-.82.593-1.262.338L3.43 12.84c-.442-.255-.593-.82-.338-1.26M.8 17.136c.132-.492.639-.784 1.132-.652l4.901 1.312c.493.132.785.638.653 1.13-.132.492-.638.784-1.131.652l-4.901-1.312c-.493-.132-.786-.638-.654-1.13M45.389 17.143c.132.492-.16.998-.653 1.13l-4.902 1.312c-.492.132-.999-.16-1.13-.653-.133-.492.16-.998.652-1.13l4.902-1.312c.492-.132.999.16 1.13.653M43.08 11.603c.256.441.104 1.006-.337 1.26l-4.395 2.535c-.442.255-1.007.104-1.262-.338-.255-.441-.103-1.005.338-1.26l4.395-2.535c.442-.255 1.007-.103 1.262.338M39.402 6.818c.36.36.36.944 0 1.305l-3.588 3.584c-.36.36-.946.36-1.306 0-.36-.36-.36-.944 0-1.305l3.588-3.584c.36-.36.945-.36 1.306 0M34.637 3.134c.442.254.593.819.338 1.26l-2.537 4.39c-.255.442-.82.593-1.262.338-.441-.255-.593-.82-.338-1.26l2.537-4.39c.255-.442.82-.593 1.262-.338M29.074.846c.492.132.785.638.653 1.13l-1.314 4.896c-.132.493-.638.785-1.13.653-.494-.132-.786-.638-.654-1.13l1.313-4.897c.132-.492.639-.784 1.132-.652"/>
        <path fill="#FF6900" d="M23.09 36.505c-.51 0-.923-.413-.923-.923v-2.768c0-.51.413-.923.923-.923s.924.413.924.923v2.768c0 .51-.413.923-.924.923M31.866 23.095c0-.51.413-.923.924-.923h2.77c.51 0 .924.413.924.923s-.413.922-.924.922h-2.77c-.51 0-.924-.413-.924-.922M30.684 27.493c.255-.441.82-.593 1.261-.338l2.4 1.384c.442.255.593.82.338 1.26-.255.442-.82.593-1.262.338l-2.4-1.384c-.441-.254-.592-.819-.337-1.26M27.467 30.72c.441-.255 1.006-.104 1.261.337l1.386 2.397c.255.442.103 1.006-.338 1.26-.442.256-1.007.104-1.262-.337l-1.385-2.397c-.255-.441-.104-1.006.338-1.26"/>
        <path fill="#425563" d="M17.114.837c.492-.132.999.16 1.13.653l1.314 4.896c.132.492-.16.998-.653 1.13-.493.132-.999-.16-1.131-.652l-1.313-4.897c-.132-.492.16-.998.653-1.13M11.568 3.143c.442-.255 1.007-.103 1.262.338l2.537 4.39c.255.441.104 1.006-.338 1.26-.442.255-1.006.104-1.262-.337l-2.537-4.39c-.255-.442-.103-1.006.338-1.26M6.779 39.41c-.361-.361-.361-.945 0-1.306l3.588-3.584c.36-.36.945-.36 1.306 0 .36.36.36.944 0 1.305l-3.588 3.584c-.36.36-.946.36-1.306 0"/>
        <path fill="#FF6900" d="M23.082 9.731c.51 0 .924.413.924.923v2.768c0 .51-.414.922-.924.922s-.923-.413-.923-.922v-2.768c0-.51.413-.923.923-.923M15.49 18.743c-.256.441-.82.592-1.263.338l-2.4-1.385c-.44-.254-.592-.819-.337-1.26.255-.441.82-.592 1.261-.338l2.4 1.384c.442.255.593.82.338 1.26M18.706 15.516c-.442.255-1.006.104-1.262-.337L16.06 12.78c-.255-.44-.104-1.005.338-1.26.442-.255 1.007-.104 1.262.338l1.385 2.397c.255.441.104 1.006-.338 1.26M27.454 15.526c-.442-.255-.593-.82-.338-1.26l1.385-2.398c.255-.441.82-.593 1.262-.338.442.255.593.82.338 1.26l-1.385 2.398c-.255.441-.82.592-1.262.338M30.684 18.74c-.255-.442-.104-1.006.338-1.261l2.4-1.384c.441-.255 1.006-.104 1.261.338.255.441.104 1.005-.338 1.26l-2.4 1.384c-.441.255-1.006.104-1.261-.338"/>
        <path fill="#425563" d="M11.544 43.093c-.442-.255-.593-.819-.338-1.26l2.537-4.39c.255-.442.82-.593 1.261-.338.442.255.594.82.338 1.26l-2.537 4.39c-.255.442-.82.593-1.261.338"/>
        <path fill="#FF6900" d="M9.698 23.125c0-.51.414-.923.924-.923h2.77c.51 0 .924.413.924.923s-.413.922-.924.922h-2.77c-.51 0-.924-.413-.924-.922M18.719 30.71c.442.255.593.82.338 1.26l-1.386 2.398c-.255.441-.82.592-1.261.338-.442-.255-.593-.82-.338-1.26l1.385-2.398c.255-.441.82-.593 1.262-.338M15.49 27.496c.254.442.103 1.006-.339 1.26l-2.4 1.385c-.441.255-1.006.103-1.261-.338-.255-.441-.104-1.005.338-1.26l2.4-1.384c.441-.255 1.006-.104 1.261.337"/>
        <path fill="#425563" d="M17.107 45.381c-.493-.132-.785-.638-.653-1.13l1.313-4.896c.132-.493.639-.785 1.132-.653.492.132.785.638.653 1.13l-1.314 4.897c-.132.492-.638.784-1.13.652"/>
    </g>
</svg>
