<svg xmlns="http://www.w3.org/2000/svg" xmlns:xlink="http://www.w3.org/1999/xlink" width="567" height="217" viewBox="0 0 567 217">
    <defs>
        <filter id="prefix__a" width="129%" height="112.9%" x="-7.2%" y="-3.7%" filterUnits="objectBoundingBox">
            <feOffset dx="4" dy="3" in="SourceAlpha" result="shadowOffsetOuter1"/>
            <feComposite in="shadowOffsetOuter1" in2="SourceAlpha" operator="out" result="shadowOffsetOuter1"/>
            <feColorMatrix in="shadowOffsetOuter1" values="0 0 0 0 0.878431373 0 0 0 0 0.890196078 0 0 0 0 0.898039216 0 0 0 1 0"/>
        </filter>
        <filter id="prefix__c" width="129%" height="112.9%" x="-7.2%" y="-3.7%" filterUnits="objectBoundingBox">
            <feOffset dx="4" dy="3" in="SourceAlpha" result="shadowOffsetOuter1"/>
            <feComposite in="shadowOffsetOuter1" in2="SourceAlpha" operator="out" result="shadowOffsetOuter1"/>
            <feColorMatrix in="shadowOffsetOuter1" values="0 0 0 0 0.878431373 0 0 0 0 0.890196078 0 0 0 0 0.898039216 0 0 0 1 0"/>
        </filter>
        <filter id="prefix__e" width="129%" height="112.9%" x="-7.2%" y="-3.7%" filterUnits="objectBoundingBox">
            <feOffset dx="4" dy="3" in="SourceAlpha" result="shadowOffsetOuter1"/>
            <feComposite in="shadowOffsetOuter1" in2="SourceAlpha" operator="out" result="shadowOffsetOuter1"/>
            <feColorMatrix in="shadowOffsetOuter1" values="0 0 0 0 0.878431373 0 0 0 0 0.890196078 0 0 0 0 0.898039216 0 0 0 1 0"/>
        </filter>
        <rect id="prefix__b" width="27.63" height="54.13" x="0" y="0" rx="2"/>
        <rect id="prefix__d" width="27.63" height="54.13" x="0" y="0" rx="2"/>
        <rect id="prefix__f" width="27.63" height="54.13" x="0" y="0" rx="2"/>
    </defs>
    <g fill="none" fill-rule="evenodd">
        <path fill="#FFF" d="M458.562 46.272v80.41h-15.077v57.22h3.094v30.94H145.574v-30.94h3.093V95.195l-17.628 13.282c-.732.553-1.781.404-2.332-.326l-4.004-5.315c-.553-.732-.404-1.78.326-2.331l110.744-83.453 38.776 29.22h28.735v-9.657h2.634v-18.83h-2.634V10.12h2.634V2.456h16.963v7.665h2.634v7.664h-2.634v18.83h2.634v9.657h133.047" transform="translate(.6)"/>
        <path fill="#ECEEEF" d="M305.551 68.088c0 1.134-.92 2.054-2.054 2.054-1.133 0-2.053-.92-2.053-2.054v-10.34c0-1.136.92-2.054 2.053-2.054 1.134 0 2.054.918 2.054 2.054v10.34M286.167 53.48c0 1.136-.92 2.054-2.053 2.054-1.134 0-2.054-.918-2.054-2.054v-7.208c0-1.133.92-2.054 2.054-2.054 1.133 0 2.053.92 2.053 2.054v7.208M441.232 108.758c0 1.136-.92 2.054-2.054 2.054-1.133 0-2.054-.918-2.054-2.054V46.272c0-1.133.92-2.054 2.054-2.054s2.054.92 2.054 2.054v62.486M421.848 108.758c0 1.136-.918 2.054-2.053 2.054-1.134 0-2.054-.918-2.054-2.054V46.272c0-1.133.92-2.054 2.054-2.054 1.135 0 2.053.92 2.053 2.054v62.486M402.467 108.758c0 1.136-.92 2.054-2.054 2.054-1.133 0-2.056-.918-2.056-2.054V46.272c0-1.133.923-2.054 2.056-2.054 1.134 0 2.054.92 2.054 2.054v62.486M383.083 108.758c0 1.136-.92 2.054-2.053 2.054-1.134 0-2.054-.918-2.054-2.054V46.272c0-1.133.92-2.054 2.054-2.054 1.133 0 2.053.92 2.053 2.054v62.486M363.7 108.758c0 1.136-.918 2.054-2.054 2.054-1.134 0-2.054-.918-2.054-2.054V46.272c0-1.133.92-2.054 2.054-2.054 1.136 0 2.054.92 2.054 2.054v62.486M344.318 97.3c0 1.134-.92 2.054-2.053 2.054-1.136 0-2.056-.92-2.056-2.054V46.272c0-1.133.92-2.054 2.056-2.054 1.133 0 2.053.92 2.053 2.054V97.3M324.935 82.694c0 1.134-.92 2.054-2.054 2.054s-2.056-.92-2.056-2.054V57.748c0-1.136.922-2.054 2.056-2.054s2.054.918 2.054 2.054v24.946" transform="translate(.6)"/>
        <path fill="#E0E3E5" d="M238.717 57.085c8.236 0 14.909 6.675 14.909 14.909 0 8.236-6.673 14.909-14.91 14.909-8.233 0-14.906-6.673-14.906-14.91 0-8.233 6.673-14.908 14.907-14.908zm204.768 69.597v10.28h-81.247l7.017 16.272-6.007 7.972h-9.046v53.635h-28.23v-30.94h-3.091v-80.403L294.11 81.82l-39.38 29.673v48.954l-24.615-58.475 5.657 7.509 53.033-39.963 34.075 25.568 17.628 13.394 6.008-7.974 6.983 16.192h105.062v9.984h-15.077zm-249.208 80.607h20.598v-7.825h-20.598v7.825zm81.954 7.552h-13.34v-30.94l13.34 30.94zm-10.246-30.94H277.1v-40.174c3.68-2.636 7.494-4.6 11.45-5.842v34.584h6.267V136.54c5.338-.626 10.932 0 16.812 1.987v-29.046c-17.346-10.262-32.356-9.521-45.643 0v74.42zM182.26 172.47h44.633v-53.793H182.26v53.793zm-33.592-77.273l87.106-65.641 45.222 34.08-5.604 4.221-34.41-25.928-9.754 7.353c-3.903 1.124-7.21 3.664-9.328 7.028l-73.232 55.184V95.196z" transform="translate(.6)"/>
        <path fill="#425563" d="M237.042 15.442c.135.108.259.232.37.377l-.37-.377zm53.033 39.963c.136.108.26.232.368.376l-.368-.376zM147.627 214.841c0 1.134-.92 2.054-2.053 2.054-1.134 0-2.054-.92-2.054-2.054v-30.94c0-1.133.92-2.054 2.054-2.054h1.039V99.31l-14.34 10.806c-.817.615-1.81.842-2.749.71-.945-.134-1.838-.623-2.453-1.44l-4.007-5.314c-.615-.817-.842-1.81-.709-2.75.131-.945.625-1.837 1.44-2.452l110.743-83.453c.76-.574 1.79-.537 2.504.025l38.189 28.776h26v-7.602c0-1.136.92-2.054 2.053-2.054h.58V19.84h-.58c-1.134 0-2.054-.92-2.054-2.056v-7.662c0-1.134.92-2.054 2.054-2.054h.58v-5.61c0-1.134.92-2.054 2.054-2.054h16.963c1.134 0 2.054.92 2.054 2.053v5.611h.58c1.134 0 2.054.92 2.054 2.054v7.662c0 1.136-.92 2.056-2.054 2.056h-.58v14.723h.58c1.134 0 2.054.918 2.054 2.054v7.602h130.993c1.133 0 2.054.92 2.054 2.054v80.41c0 1.134-.92 2.054-2.054 2.054h-13.023v53.111h1.04c1.133 0 2.054.92 2.054 2.054v30.94c0 1.134-.92 2.054-2.054 2.054s-2.054-.92-2.054-2.054v-28.886H426.58v28.886c0 1.134-.92 2.054-2.054 2.054-1.133 0-2.053-.92-2.053-2.054v-22.009h-78.58v22.01c0 1.133-.92 2.053-2.055 2.053-1.134 0-2.054-.92-2.054-2.054v-28.886h-11.756v28.886c0 1.134-.92 2.054-2.056 2.054-1.134 0-2.054-.92-2.054-2.054v-28.886h-7.141v28.886c0 1.134-.92 2.054-2.056 2.054-1.134 0-2.054-.92-2.054-2.054v-5.496h-47.721v5.496c0 1.134-.92 2.054-2.054 2.054-1.136 0-2.056-.92-2.056-2.054v-28.886h-7.144v28.886c0 1.134-.92 2.054-2.053 2.054-1.134 0-2.054-.92-2.054-2.054v-28.886H147.627v28.886zM280.681 48.326l9.348 7.045.012.009.034.025 57.679 43.465c.814.615 1.305 1.507 1.438 2.453.133.936-.094 1.925-.709 2.742v.01l-4.004 5.312c-.617.816-1.51 1.308-2.455 1.44-.941.131-1.933-.093-2.75-.71l-14.34-10.807v15.334h131.572V48.326H327.569v9.422c0 1.134-.92 2.054-2.054 2.054h-22.231c-1.134 0-2.054-.92-2.054-2.054v-9.422h-20.55zm-7.28-.349c-.059-.041-.118-.085-.174-.13l-37.454-28.224-109.2 82.29 3.539 4.695 17.235-12.986c.058-.048.113-.09.172-.131l86.987-65.547c.714-.562 1.744-.599 2.504-.025l43.5 32.78 4.889-3.68-11.997-9.042zm34.571-13.415h12.853V19.84h-12.853v14.723zm-2.634 21.132h18.124V38.67h-18.124v17.024zm2.634-47.627h12.853V4.51h-12.853v3.557zm-2.634 7.662h18.124v-3.554h-18.124v3.554zm136.094 113.007H324.935v53.111h14.849v-39.196c0-1.134.92-2.054 2.054-2.054h82.688c1.134 0 2.054.92 2.054 2.054v39.196h14.852v-53.111zm-116.497-4.11h131.573v-5.875H324.935v5.875zm18.959 64.099h78.579V168.77h-78.58v19.955zm0-24.065h78.579v-19.955h-78.58v19.955zm-59.044 5.755h7.91v-41.68h-7.91v41.68zm9.966 4.108h-12.02c-1.133 0-2.053-.92-2.053-2.054v-45.787c0-1.136.92-2.056 2.053-2.056h12.02c1.134 0 2.054.92 2.054 2.056v45.787c0 1.133-.92 2.054-2.054 2.054zm-22.25 7.324v-65.15c0-1.133.92-2.053 2.057-2.053h28.367c1.134 0 2.054.92 2.054 2.054v65.15h4.53v-70.073c-2.786-2.375-5.925-4.233-9.273-5.518-3.621-1.393-7.516-2.125-11.495-2.125-3.979 0-7.873.732-11.494 2.125-3.348 1.285-6.487 3.143-9.273 5.518v70.072h4.528zm4.11 0h24.26v-63.096h-24.26v63.096zm36.241-72.596c.466.376.764.952.764 1.6v70.996h7.144V96.215l-32.019-24.13-32.018 24.13v85.632h7.143v-70.996c0-.648.299-1.224.765-1.6 3.288-2.949 7.077-5.248 11.154-6.815 4.117-1.581 8.505-2.412 12.956-2.412 4.452 0 8.84.83 12.956 2.412 4.08 1.567 7.867 3.866 11.155 6.815zm10.664-16.095c.388.14.723.395.961.725l16.894 12.729 3.539-4.697-56.169-42.327-7.035 5.301-.046.034-49.087 36.992 3.539 4.697 17.23-12.984c.06-.05.12-.096.184-.137l33.946-25.582c.714-.562 1.744-.599 2.504-.025l33.54 25.274zm-70.903 6.154l-14.34 10.806c-.817.618-1.81.842-2.749.712-.945-.133-1.838-.625-2.453-1.441l-4.004-5.313c-.618-.819-.845-1.81-.712-2.749.133-.945.622-1.84 1.44-2.455l47.246-35.603-41.333-31.144-85.052 64.092v85.632h101.957V99.31zm-16.988-51.3c4.684 0 8.924 1.9 11.995 4.967 3.07 3.07 4.968 7.314 4.968 11.995 0 4.686-1.898 8.926-4.968 11.997-3.07 3.068-7.311 4.968-11.995 4.968-4.683 0-8.924-1.9-11.994-4.968-3.069-3.07-4.969-7.311-4.969-11.997 0-4.681 1.9-8.924 4.969-11.995 3.07-3.068 7.31-4.968 11.994-4.968zm9.09 7.872c-2.327-2.324-5.54-3.763-9.09-3.763s-6.765 1.439-9.09 3.763c-2.326 2.327-3.765 5.542-3.765 9.09 0 3.55 1.439 6.765 3.766 9.092 2.324 2.324 5.54 3.763 9.09 3.763s6.762-1.439 9.089-3.763c2.326-2.327 3.765-5.542 3.765-9.092 0-3.548-1.439-6.763-3.765-9.09zm-68.273 52.913h50.385c1.136 0 2.056.92 2.056 2.056v61.618c0 1.133-.92 2.054-2.056 2.054h-50.385c-1.134 0-2.054-.92-2.054-2.054V110.85c0-1.136.92-2.056 2.054-2.056zm14.07 61.62h22.244v-57.51h-22.243v57.51zm26.354 0h7.91v-57.51h-7.91v57.51zm-38.37 0h7.91v-57.51h-7.91v57.51zm86.385 34.82h47.723v-3.809h-47.723v3.81zm0-7.916h47.723v-3.626h-47.723v3.626zm0-7.736h47.723v-3.628h-47.723v3.628zm-76.422 0h26.35c1.136 0 2.057.92 2.057 2.054v15.652c0 1.134-.92 2.054-2.056 2.054h-26.35c-1.134 0-2.055-.92-2.055-2.054v-15.652c0-1.134.92-2.054 2.054-2.054zm2.054 15.652h22.243v-11.544h-22.243v11.544z" transform="translate(.6)"/>
        <g transform="translate(.6) translate(351.4 54.446)">
            <use fill="#000" filter="url(#prefix__a)" xlink:href="#prefix__b"/>
            <rect width="24.63" height="51.13" x="1.5" y="1.5" fill="#364652" stroke="#425563" stroke-linejoin="square" stroke-width="3" rx="2"/>
            <path stroke="#485D6C" stroke-linecap="round" stroke-width="2" d="M13.5 6.282L13.5 47.792M7.5 6.282L7.5 47.792M19.5 6.282L19.5 47.792" opacity=".6"/>
        </g>
        <g transform="translate(.6) translate(385.4 54.446)">
            <use fill="#000" filter="url(#prefix__c)" xlink:href="#prefix__d"/>
            <rect width="24.63" height="51.13" x="1.5" y="1.5" fill="#364652" stroke="#425563" stroke-linejoin="square" stroke-width="3" rx="2"/>
            <path stroke="#485D6C" stroke-linecap="round" stroke-width="2" d="M13.5 6.282L13.5 47.792M7.5 6.282L7.5 47.792M19.5 6.282L19.5 47.792" opacity=".6"/>
        </g>
        <g transform="translate(.6) translate(419.4 54.446)">
            <use fill="#000" filter="url(#prefix__e)" xlink:href="#prefix__f"/>
            <rect width="24.63" height="51.13" x="1.5" y="1.5" fill="#364652" stroke="#425563" stroke-linejoin="square" stroke-width="3" rx="2"/>
            <path stroke="#485D6C" stroke-linecap="round" stroke-width="2" d="M13.5 6.282L13.5 47.792M7.5 6.282L7.5 47.792M19.5 6.282L19.5 47.792" opacity=".6"/>
        </g>
        <path fill="#3DCA59" d="M77.785 93.555c23.87 0 43.219 19.35 43.219 43.217 0 23.868-19.35 43.217-43.22 43.217-23.867 0-43.216-19.35-43.216-43.217 0-23.868 19.35-43.217 43.217-43.217" transform="translate(.6)"/>
        <path fill="#B8E986" d="M73.16 98.08c18.278 0 33.098 14.817 33.098 33.097s-14.82 33.097-33.097 33.097c-18.28 0-33.1-14.817-33.1-33.097s14.82-33.097 33.1-33.097" transform="translate(.6)"/>
        <path fill="#425563" d="M75.733 136.772c0-1.134.918-2.054 2.054-2.054 1.134 0 2.054.92 2.054 2.054v11.375l5.659-5.659c.803-.803 2.104-.803 2.905 0 .803.801.803 2.102 0 2.903l-8.564 8.564v23.93c10.549-.52 20.056-5.008 27.052-12.007 7.45-7.448 12.057-17.738 12.057-29.106 0-11.368-4.608-21.658-12.057-29.106-7.448-7.45-17.74-12.057-29.108-12.057-11.366 0-21.658 4.608-29.107 12.056-7.448 7.45-12.056 17.739-12.056 29.107 0 11.368 4.608 21.658 12.056 29.106 7 7 16.504 11.488 27.055 12.006v-10.319l-15.638-15.636c-.801-.801-.801-2.102 0-2.905.803-.801 2.102-.801 2.905 0l12.733 12.733v-24.985zm4.108 45.225v32.844c0 1.134-.92 2.054-2.054 2.054-1.136 0-2.054-.92-2.054-2.054v-32.844c-11.685-.521-22.217-5.471-29.958-13.213-8.194-8.193-13.26-19.51-13.26-32.012 0-12.502 5.066-23.82 13.26-32.012 8.19-8.192 19.51-13.26 32.01-13.26 12.501 0 23.821 5.068 32.014 13.26 8.192 8.193 13.259 19.51 13.259 32.012 0 12.502-5.067 23.82-13.26 32.012-7.742 7.742-18.275 12.692-29.957 13.213z" transform="translate(.6)"/>
        <path fill="#425563" d="M1.16 216.895c-.64 0-1.16-.92-1.16-2.054 0-1.136.52-2.054 1.16-2.054h564.012c.639 0 1.158.918 1.158 2.054 0 1.134-.52 2.054-1.158 2.054H1.159" transform="translate(.6)"/>
    </g>
</svg>
